<mxfile host="app.diagrams.net" agent="Mozilla/5.0 (Macintosh; Intel Mac OS X 10_15_7) AppleWebKit/605.1.15 (KHTML, like Gecko) Version/17.6 Safari/605.1.15" version="24.7.16">
  <diagram name="Page-1" id="Awp3_F7C_z5ZrL3gzjpm">
    <mxGraphModel dx="2057" dy="1914" grid="1" gridSize="10" guides="1" tooltips="1" connect="1" arrows="1" fold="1" page="1" pageScale="1" pageWidth="850" pageHeight="1100" math="0" shadow="0">
      <root>
        <mxCell id="0" />
        <mxCell id="1" parent="0" />
        <mxCell id="v9sIgq86dhHqkVJE0dsQ-2" value="" style="swimlane;startSize=0;" parent="1" vertex="1">
          <mxGeometry x="-60" y="10" width="870" height="650" as="geometry" />
        </mxCell>
        <mxCell id="v9sIgq86dhHqkVJE0dsQ-8" style="edgeStyle=orthogonalEdgeStyle;rounded=0;orthogonalLoop=1;jettySize=auto;html=1;entryX=0.5;entryY=0;entryDx=0;entryDy=0;" parent="v9sIgq86dhHqkVJE0dsQ-2" source="v9sIgq86dhHqkVJE0dsQ-3" target="v9sIgq86dhHqkVJE0dsQ-6" edge="1">
          <mxGeometry relative="1" as="geometry" />
        </mxCell>
        <mxCell id="v9sIgq86dhHqkVJE0dsQ-24" style="edgeStyle=orthogonalEdgeStyle;rounded=0;orthogonalLoop=1;jettySize=auto;html=1;entryX=0.5;entryY=1;entryDx=0;entryDy=0;" parent="v9sIgq86dhHqkVJE0dsQ-2" source="v9sIgq86dhHqkVJE0dsQ-4" target="v9sIgq86dhHqkVJE0dsQ-6" edge="1">
          <mxGeometry relative="1" as="geometry" />
        </mxCell>
        <mxCell id="v9sIgq86dhHqkVJE0dsQ-23" style="edgeStyle=orthogonalEdgeStyle;rounded=0;orthogonalLoop=1;jettySize=auto;html=1;entryX=0.5;entryY=1;entryDx=0;entryDy=0;" parent="v9sIgq86dhHqkVJE0dsQ-2" source="v9sIgq86dhHqkVJE0dsQ-5" target="v9sIgq86dhHqkVJE0dsQ-7" edge="1">
          <mxGeometry relative="1" as="geometry">
            <mxPoint x="570" y="350" as="targetPoint" />
          </mxGeometry>
        </mxCell>
        <mxCell id="v9sIgq86dhHqkVJE0dsQ-27" style="edgeStyle=orthogonalEdgeStyle;rounded=0;orthogonalLoop=1;jettySize=auto;html=1;" parent="v9sIgq86dhHqkVJE0dsQ-2" source="v9sIgq86dhHqkVJE0dsQ-6" target="v9sIgq86dhHqkVJE0dsQ-4" edge="1">
          <mxGeometry relative="1" as="geometry" />
        </mxCell>
        <mxCell id="v9sIgq86dhHqkVJE0dsQ-22" style="edgeStyle=orthogonalEdgeStyle;rounded=0;orthogonalLoop=1;jettySize=auto;html=1;" parent="v9sIgq86dhHqkVJE0dsQ-2" source="v9sIgq86dhHqkVJE0dsQ-7" target="v9sIgq86dhHqkVJE0dsQ-5" edge="1">
          <mxGeometry relative="1" as="geometry" />
        </mxCell>
        <mxCell id="v9sIgq86dhHqkVJE0dsQ-28" style="edgeStyle=orthogonalEdgeStyle;rounded=0;orthogonalLoop=1;jettySize=auto;html=1;" parent="v9sIgq86dhHqkVJE0dsQ-2" source="v9sIgq86dhHqkVJE0dsQ-7" target="v9sIgq86dhHqkVJE0dsQ-3" edge="1">
          <mxGeometry relative="1" as="geometry" />
        </mxCell>
        <mxCell id="v9sIgq86dhHqkVJE0dsQ-10" style="edgeStyle=orthogonalEdgeStyle;rounded=0;orthogonalLoop=1;jettySize=auto;html=1;entryX=0.583;entryY=0.025;entryDx=0;entryDy=0;entryPerimeter=0;" parent="v9sIgq86dhHqkVJE0dsQ-2" source="v9sIgq86dhHqkVJE0dsQ-3" target="v9sIgq86dhHqkVJE0dsQ-7" edge="1">
          <mxGeometry relative="1" as="geometry" />
        </mxCell>
        <mxCell id="v9sIgq86dhHqkVJE0dsQ-21" style="edgeStyle=orthogonalEdgeStyle;rounded=0;orthogonalLoop=1;jettySize=auto;html=1;" parent="v9sIgq86dhHqkVJE0dsQ-2" source="v9sIgq86dhHqkVJE0dsQ-14" target="v9sIgq86dhHqkVJE0dsQ-5" edge="1">
          <mxGeometry relative="1" as="geometry" />
        </mxCell>
        <mxCell id="v9sIgq86dhHqkVJE0dsQ-20" style="edgeStyle=orthogonalEdgeStyle;rounded=0;orthogonalLoop=1;jettySize=auto;html=1;entryX=0.938;entryY=0.453;entryDx=0;entryDy=0;entryPerimeter=0;" parent="v9sIgq86dhHqkVJE0dsQ-2" source="v9sIgq86dhHqkVJE0dsQ-13" target="v9sIgq86dhHqkVJE0dsQ-4" edge="1">
          <mxGeometry relative="1" as="geometry" />
        </mxCell>
        <mxCell id="v9sIgq86dhHqkVJE0dsQ-15" value="Kafka Connector" style="text;html=1;align=center;verticalAlign=middle;whiteSpace=wrap;rounded=0;" parent="v9sIgq86dhHqkVJE0dsQ-2" vertex="1">
          <mxGeometry x="380" y="330" width="170" height="30" as="geometry" />
        </mxCell>
        <mxCell id="v9sIgq86dhHqkVJE0dsQ-40" style="edgeStyle=orthogonalEdgeStyle;rounded=0;orthogonalLoop=1;jettySize=auto;html=1;entryX=0.5;entryY=0;entryDx=0;entryDy=0;" parent="v9sIgq86dhHqkVJE0dsQ-2" source="v9sIgq86dhHqkVJE0dsQ-39" target="v9sIgq86dhHqkVJE0dsQ-3" edge="1">
          <mxGeometry relative="1" as="geometry" />
        </mxCell>
        <mxCell id="v9sIgq86dhHqkVJE0dsQ-3" value="API gateway" style="ellipse;whiteSpace=wrap;html=1;" parent="v9sIgq86dhHqkVJE0dsQ-2" vertex="1">
          <mxGeometry x="400" y="80" width="120" height="80" as="geometry" />
        </mxCell>
        <mxCell id="k6bAHx3YXwx4Xi9f9LUA-3" style="edgeStyle=orthogonalEdgeStyle;rounded=0;orthogonalLoop=1;jettySize=auto;html=1;entryX=0.5;entryY=1;entryDx=0;entryDy=0;" edge="1" parent="v9sIgq86dhHqkVJE0dsQ-2">
          <mxGeometry relative="1" as="geometry">
            <mxPoint x="299.94" y="330" as="sourcePoint" />
            <mxPoint x="459.94" y="150" as="targetPoint" />
          </mxGeometry>
        </mxCell>
        <mxCell id="k6bAHx3YXwx4Xi9f9LUA-34" style="edgeStyle=orthogonalEdgeStyle;rounded=0;orthogonalLoop=1;jettySize=auto;html=1;entryX=0.75;entryY=0;entryDx=0;entryDy=0;" edge="1" parent="v9sIgq86dhHqkVJE0dsQ-2" source="v9sIgq86dhHqkVJE0dsQ-6" target="k6bAHx3YXwx4Xi9f9LUA-24">
          <mxGeometry relative="1" as="geometry" />
        </mxCell>
        <mxCell id="v9sIgq86dhHqkVJE0dsQ-6" value="Command mS&amp;nbsp;" style="ellipse;whiteSpace=wrap;html=1;" parent="v9sIgq86dhHqkVJE0dsQ-2" vertex="1">
          <mxGeometry x="180" y="290" width="120" height="90" as="geometry" />
        </mxCell>
        <mxCell id="v9sIgq86dhHqkVJE0dsQ-7" value="Query mS&amp;nbsp;" style="ellipse;whiteSpace=wrap;html=1;" parent="v9sIgq86dhHqkVJE0dsQ-2" vertex="1">
          <mxGeometry x="660" y="290" width="120" height="80" as="geometry" />
        </mxCell>
        <mxCell id="v9sIgq86dhHqkVJE0dsQ-4" value="" style="image;aspect=fixed;html=1;points=[];align=center;fontSize=12;image=img/lib/azure2/databases/Azure_Cosmos_DB.svg;" parent="v9sIgq86dhHqkVJE0dsQ-2" vertex="1">
          <mxGeometry x="226" y="466" width="74" height="74" as="geometry" />
        </mxCell>
        <mxCell id="v9sIgq86dhHqkVJE0dsQ-13" value="Source Connector" style="rounded=1;whiteSpace=wrap;html=1;direction=south;" parent="v9sIgq86dhHqkVJE0dsQ-2" vertex="1">
          <mxGeometry x="390" y="410" width="60" height="120" as="geometry" />
        </mxCell>
        <mxCell id="v9sIgq86dhHqkVJE0dsQ-12" value="" style="whiteSpace=wrap;html=1;aspect=fixed;" parent="v9sIgq86dhHqkVJE0dsQ-2" vertex="1">
          <mxGeometry x="370" y="360" width="200" height="200" as="geometry" />
        </mxCell>
        <mxCell id="v9sIgq86dhHqkVJE0dsQ-14" value="Sink Connector" style="rounded=1;whiteSpace=wrap;html=1;direction=south;" parent="v9sIgq86dhHqkVJE0dsQ-2" vertex="1">
          <mxGeometry x="490" y="410" width="60" height="120" as="geometry" />
        </mxCell>
        <mxCell id="v9sIgq86dhHqkVJE0dsQ-5" value="" style="image;aspect=fixed;html=1;points=[];align=center;fontSize=12;image=img/lib/azure2/databases/Azure_Cosmos_DB.svg;" parent="v9sIgq86dhHqkVJE0dsQ-2" vertex="1">
          <mxGeometry x="688" y="490" width="64" height="64" as="geometry" />
        </mxCell>
        <mxCell id="v9sIgq86dhHqkVJE0dsQ-39" value="Ingress Router to expose to APP to Internet" style="rounded=1;whiteSpace=wrap;html=1;" parent="v9sIgq86dhHqkVJE0dsQ-2" vertex="1">
          <mxGeometry x="170" y="50" width="120" height="60" as="geometry" />
        </mxCell>
        <mxCell id="k6bAHx3YXwx4Xi9f9LUA-2" value="Source Connector" style="rounded=1;whiteSpace=wrap;html=1;direction=south;" vertex="1" parent="v9sIgq86dhHqkVJE0dsQ-2">
          <mxGeometry x="400" y="410" width="60" height="120" as="geometry" />
        </mxCell>
        <mxCell id="k6bAHx3YXwx4Xi9f9LUA-6" style="edgeStyle=orthogonalEdgeStyle;rounded=0;orthogonalLoop=1;jettySize=auto;html=1;" edge="1" parent="v9sIgq86dhHqkVJE0dsQ-2" source="k6bAHx3YXwx4Xi9f9LUA-4" target="v9sIgq86dhHqkVJE0dsQ-3">
          <mxGeometry relative="1" as="geometry" />
        </mxCell>
        <mxCell id="k6bAHx3YXwx4Xi9f9LUA-4" value="" style="image;aspect=fixed;html=1;points=[];align=center;fontSize=12;image=img/lib/azure2/other/Arc_PostgreSQL.svg;" vertex="1" parent="v9sIgq86dhHqkVJE0dsQ-2">
          <mxGeometry x="795" y="12" width="65.08" height="68" as="geometry" />
        </mxCell>
        <mxCell id="k6bAHx3YXwx4Xi9f9LUA-5" style="edgeStyle=orthogonalEdgeStyle;rounded=0;orthogonalLoop=1;jettySize=auto;html=1;entryX=0.055;entryY=0.4;entryDx=0;entryDy=0;entryPerimeter=0;" edge="1" parent="v9sIgq86dhHqkVJE0dsQ-2" source="v9sIgq86dhHqkVJE0dsQ-3" target="k6bAHx3YXwx4Xi9f9LUA-4">
          <mxGeometry relative="1" as="geometry" />
        </mxCell>
        <mxCell id="k6bAHx3YXwx4Xi9f9LUA-24" value="TOPIC A" style="rounded=1;whiteSpace=wrap;html=1;" vertex="1" parent="v9sIgq86dhHqkVJE0dsQ-2">
          <mxGeometry x="40" y="420" width="120" height="60" as="geometry" />
        </mxCell>
        <mxCell id="k6bAHx3YXwx4Xi9f9LUA-26" value="Topic B&amp;nbsp;" style="rounded=1;whiteSpace=wrap;html=1;" vertex="1" parent="v9sIgq86dhHqkVJE0dsQ-2">
          <mxGeometry x="40" y="500" width="120" height="60" as="geometry" />
        </mxCell>
        <mxCell id="k6bAHx3YXwx4Xi9f9LUA-31" value="" style="swimlane;startSize=0;" vertex="1" parent="v9sIgq86dhHqkVJE0dsQ-2">
          <mxGeometry x="20" y="403" width="200" height="200" as="geometry" />
        </mxCell>
        <mxCell id="k6bAHx3YXwx4Xi9f9LUA-40" value="Kafka Cluster" style="text;html=1;align=center;verticalAlign=middle;whiteSpace=wrap;rounded=0;" vertex="1" parent="k6bAHx3YXwx4Xi9f9LUA-31">
          <mxGeometry x="50" y="167" width="60" height="30" as="geometry" />
        </mxCell>
        <mxCell id="k6bAHx3YXwx4Xi9f9LUA-39" style="edgeStyle=orthogonalEdgeStyle;rounded=0;orthogonalLoop=1;jettySize=auto;html=1;entryX=0.25;entryY=0.929;entryDx=0;entryDy=0;entryPerimeter=0;" edge="1" parent="v9sIgq86dhHqkVJE0dsQ-2" source="k6bAHx3YXwx4Xi9f9LUA-26" target="v9sIgq86dhHqkVJE0dsQ-6">
          <mxGeometry relative="1" as="geometry" />
        </mxCell>
        <mxCell id="v9sIgq86dhHqkVJE0dsQ-32" value="File Upload API Design using CQRS mS pattern&amp;nbsp;" style="text;html=1;align=center;verticalAlign=middle;whiteSpace=wrap;rounded=0;fontSize=17;" parent="1" vertex="1">
          <mxGeometry x="210" y="-40" width="400" height="30" as="geometry" />
        </mxCell>
        <mxCell id="v9sIgq86dhHqkVJE0dsQ-42" style="edgeStyle=orthogonalEdgeStyle;rounded=0;orthogonalLoop=1;jettySize=auto;html=1;entryX=0.5;entryY=0;entryDx=0;entryDy=0;" parent="1" source="v9sIgq86dhHqkVJE0dsQ-41" target="v9sIgq86dhHqkVJE0dsQ-39" edge="1">
          <mxGeometry relative="1" as="geometry" />
        </mxCell>
        <mxCell id="v9sIgq86dhHqkVJE0dsQ-41" value="Actor" style="shape=umlActor;verticalLabelPosition=bottom;verticalAlign=top;html=1;outlineConnect=0;" parent="1" vertex="1">
          <mxGeometry x="130" y="-120" width="30" height="60" as="geometry" />
        </mxCell>
        <mxCell id="v9sIgq86dhHqkVJE0dsQ-43" style="edgeStyle=orthogonalEdgeStyle;rounded=0;orthogonalLoop=1;jettySize=auto;html=1;" parent="1" source="v9sIgq86dhHqkVJE0dsQ-39" target="v9sIgq86dhHqkVJE0dsQ-41" edge="1">
          <mxGeometry relative="1" as="geometry" />
        </mxCell>
        <mxCell id="k6bAHx3YXwx4Xi9f9LUA-7" value="On Prem Data Store&amp;nbsp;" style="whiteSpace=wrap;html=1;aspect=fixed;" vertex="1" parent="1">
          <mxGeometry x="-280" y="250" width="110" height="110" as="geometry" />
        </mxCell>
        <mxCell id="k6bAHx3YXwx4Xi9f9LUA-35" style="edgeStyle=orthogonalEdgeStyle;rounded=0;orthogonalLoop=1;jettySize=auto;html=1;" edge="1" parent="1" source="k6bAHx3YXwx4Xi9f9LUA-8" target="k6bAHx3YXwx4Xi9f9LUA-24">
          <mxGeometry relative="1" as="geometry" />
        </mxCell>
        <mxCell id="k6bAHx3YXwx4Xi9f9LUA-36" style="edgeStyle=orthogonalEdgeStyle;rounded=0;orthogonalLoop=1;jettySize=auto;html=1;entryX=0;entryY=0.5;entryDx=0;entryDy=0;" edge="1" parent="1" source="k6bAHx3YXwx4Xi9f9LUA-8" target="k6bAHx3YXwx4Xi9f9LUA-26">
          <mxGeometry relative="1" as="geometry" />
        </mxCell>
        <mxCell id="k6bAHx3YXwx4Xi9f9LUA-8" value="AWS direct connect" style="ellipse;whiteSpace=wrap;html=1;aspect=fixed;" vertex="1" parent="1">
          <mxGeometry x="-50" y="290" width="80" height="80" as="geometry" />
        </mxCell>
        <mxCell id="k6bAHx3YXwx4Xi9f9LUA-10" style="edgeStyle=orthogonalEdgeStyle;rounded=0;orthogonalLoop=1;jettySize=auto;html=1;entryX=1.049;entryY=0.424;entryDx=0;entryDy=0;entryPerimeter=0;" edge="1" parent="1" source="k6bAHx3YXwx4Xi9f9LUA-8" target="k6bAHx3YXwx4Xi9f9LUA-7">
          <mxGeometry relative="1" as="geometry" />
        </mxCell>
        <mxCell id="k6bAHx3YXwx4Xi9f9LUA-12" style="edgeStyle=orthogonalEdgeStyle;rounded=0;orthogonalLoop=1;jettySize=auto;html=1;" edge="1" parent="1" source="v9sIgq86dhHqkVJE0dsQ-3" target="k6bAHx3YXwx4Xi9f9LUA-8">
          <mxGeometry relative="1" as="geometry" />
        </mxCell>
      </root>
    </mxGraphModel>
  </diagram>
</mxfile>
